<svg viewBox="0 0 120 120" xmlns="http://www.w3.org/2000/svg">
  <defs>
    <linearGradient id="caseTop" x1="18" y1="28" x2="97" y2="48" gradientUnits="userSpaceOnUse">
      <stop offset="0" stop-color="#8c5526"/>
      <stop offset="0.55" stop-color="#b07035"/>
      <stop offset="1" stop-color="#6a3915"/>
    </linearGradient>
    <linearGradient id="caseBody" x1="22" y1="40" x2="95" y2="96" gradientUnits="userSpaceOnUse">
      <stop offset="0" stop-color="#764319"/>
      <stop offset="0.52" stop-color="#9a5a28"/>
      <stop offset="1" stop-color="#532b11"/>
    </linearGradient>
    <linearGradient id="metal" x1="38" y1="13" x2="84" y2="39" gradientUnits="userSpaceOnUse">
      <stop offset="0" stop-color="#ffefc9"/>
      <stop offset="0.48" stop-color="#efc56e"/>
      <stop offset="1" stop-color="#c88b37"/>
    </linearGradient>
    <linearGradient id="paper" x1="0" y1="0" x2="24" y2="32" gradientUnits="userSpaceOnUse">
      <stop offset="0" stop-color="#fff8df"/>
      <stop offset="1" stop-color="#edd3a1"/>
    </linearGradient>
    <filter id="shadow" x="5" y="8" width="110" height="96" filterUnits="userSpaceOnUse">
      <feDropShadow dx="0" dy="7" stdDeviation="6" flood-color="#6b3d16" flood-opacity="0.22"/>
    </filter>
  </defs>

  <g filter="url(#shadow)">
    <path d="M44 31v-7c0-6.1 4.9-11 11-11h10c6.1 0 11 4.9 11 11v7" fill="none" stroke="url(#metal)" stroke-linecap="round" stroke-width="6"/>
    <rect x="14" y="30" width="92" height="16" rx="8" fill="url(#caseTop)"/>
    <rect x="18" y="42" width="84" height="47" rx="12" fill="url(#caseBody)"/>
    <rect x="53.5" y="66.5" width="13" height="12" rx="3" fill="#f6e0b8" stroke="#6f4019" stroke-width="2.6"/>
  </g>

  <g stroke="#75441c" stroke-linecap="round" stroke-linejoin="round">
    <g transform="translate(25 48) rotate(-14 10 14)">
      <rect width="20" height="28" rx="4" fill="url(#paper)" stroke-width="2.6"/>
      <path d="M5 9h10M5 14h10M5 19h7" stroke-width="1.9"/>
    </g>

    <g transform="translate(74 47) rotate(13 9 14)">
      <rect width="18" height="28" rx="4" fill="url(#paper)" stroke-width="2.6"/>
      <path d="M4.5 9l2.6 2.7 4.9-5.2M4.5 18l2.6 2.7 4.9-5.2" stroke-width="2"/>
    </g>

    <g transform="translate(49.5 46)">
      <circle cx="10.5" cy="14" r="6.8" fill="#f6c663" stroke-width="2.6"/>
      <circle cx="10.5" cy="14" r="2.7" fill="#fff4d8" stroke-width="1.8"/>
      <path d="M10.5 4V1.8M10.5 26.2V24M2.3 14H0M21 14h-2.3M4.9 8.4 3.2 6.7M17.8 21.3l-1.7-1.7M16.1 8.4l1.7-1.7M4.9 19.6l-1.7 1.7" stroke-width="2.3"/>
    </g>
  </g>

  <g stroke="#d6a14e" stroke-linecap="round" stroke-width="2.2">
    <path d="M18 18v5M15.5 20.5h5"/>
    <path d="M97 18v5M94.5 20.5h5"/>
    <path d="M103 25v4M101 27h4"/>
  </g>
</svg>
